<svg width="32" height="20" viewBox="0 0 32 20" fill="none" xmlns="http://www.w3.org/2000/svg">
<path d="M0.420765 9.99955C0.440502 9.77555 0.534237 9.47649 0.683916 9.30876L8.57872 0.361275C8.92311 -0.106266 9.63315 -0.104726 10.0702 0.277656C10.5072 0.660039 10.5405 1.33947 10.1577 1.74287L3.7925 8.94691H30.9474C31.5287 8.94691 32 9.41818 32 9.99955C32 10.5809 31.5287 11.0522 30.9474 11.0522H3.7925L10.1577 18.2562C10.5754 18.6596 10.4579 19.3513 10.0209 19.7337C9.58388 20.1161 8.9231 20.0889 8.57872 19.6378L0.683908 10.6903C0.472902 10.4618 0.432644 10.2137 0.420765 9.99955Z" fill="white"/>
</svg>
