<svg xmlns="http://www.w3.org/2000/svg" width="25" height="26" fill="none" viewBox="0 0 25 26">
    <path fill="#929292" fill-rule="evenodd" d="M17.182 7.753a.674.674 0 0 0 .405.01l1.418-.406a.65.65 0 0 0 .328-.22c.94-1.174.754-3.315-.404-4.587L16.806.216a.647.647 0 0 0-.671-.19.657.657 0 0 0-.465.519l-.567 3.102c-.31 1.69.663 3.608 2.08 4.106zm-.771-3.873l.33-1.79 1.222 1.345c.673.741.87 2 .459 2.72l-.963.276C16.74 6.04 16.23 4.87 16.41 3.88zM1.671 17.917c-.17-.123-.319-.413-.347-.916l.016-.068a.552.552 0 0 0 .012-.114c.004-.348.036-.699.094-1.051l.006-.03.008-.04.007-.049C2.059 12.39 4.9 9.027 8.877 7a16.538 16.538 0 0 1 5.23-1.69.657.657 0 0 0 .551-.491.661.661 0 0 0-.242-.7.685.685 0 0 0-.493-.127 17.842 17.842 0 0 0-5.65 1.822C3.946 8.032.846 11.761.17 15.425l-.006.03c-.377 1.71-.103 2.975.775 3.56.318.206.693.314 1.073.306.353 0 .774-.078 1.272-.279.43-.174.92-.438 1.474-.823a.814.814 0 0 1 .437-.042l.102.024a.81.81 0 0 1 .469.399.798.798 0 0 1-.136.92l-.084.077-.06.042-.069.04a.624.624 0 0 0-.136.093c-.847.604-1.194 1.45-.94 2.401.257.95 1.123 1.745 1.992 1.85.875.19 1.77.281 2.668.277a17.262 17.262 0 0 0 7.742-1.957c.82-.424 1.61-.909 2.361-1.45a.658.658 0 0 0 .002-1.053l-.076-.049-.042-.021-.066-.026-.044-.015-.054-.012a.663.663 0 0 0-.487.105c-.7.498-1.432.945-2.195 1.336a17.133 17.133 0 0 1-3.842 1.43 14.45 14.45 0 0 1-1.408.266l-.265.034c-.2.024-.4.044-.599.06-1.157.09-2.281.028-3.327-.192a.575.575 0 0 0-.154-.034c-.022-.004-.042-.01-.064-.01a1.275 1.275 0 0 1-.87-.881c-.103-.395.05-.727.48-1.018l.05-.04a2.198 2.198 0 0 0 .525-.445 2.158 2.158 0 0 0 .497-1.544l-.019-.15-.014-.076-.028-.127a2.134 2.134 0 0 0-1.404-1.494 2.11 2.11 0 0 0-1.617.132.662.662 0 0 0-.132.089l-.054.054c-.543.366-.993.585-1.352.697-.433.136-.727.114-.875.008zm22.355-3.864a.682.682 0 0 1-.294-.068.68.68 0 0 1-.232-.194l-.054-.09a.636.636 0 0 1-.052-.487 6.163 6.163 0 0 0-.331-4.561 5.726 5.726 0 0 0-2.325-2.37.652.652 0 0 1-.326-.659.67.67 0 0 1 .182-.379l.07-.06a.658.658 0 0 1 .23-.116l.098-.018.072-.004c.116 0 .23.03.332.088a7.022 7.022 0 0 1 2.847 2.913 7.454 7.454 0 0 1 .408 5.524.66.66 0 0 1-.625.48zm-12.288 7.11a2.21 2.21 0 0 1-1.134-.3 2.231 2.231 0 0 1-1.117-1.969 2.24 2.24 0 0 1 3.437-1.857 2.242 2.242 0 0 1 1.035 1.97 2.236 2.236 0 0 1-1.133 1.864c-.33.188-.706.29-1.088.293zm0-3.156a.916.916 0 0 0-.927.883v.042l.004.092a.9.9 0 0 0 .18.455l.066.08.068.066a.915.915 0 0 0 .589.227.929.929 0 0 0 .841-1.344.925.925 0 0 0-.16-.223l-.084-.078-.098-.068a.914.914 0 0 0-.479-.132zm10.574 7.633a.657.657 0 0 1-.603-.392l-3.876-8.691c-.99-2.238-1.168-4.791-.452-6.837a.663.663 0 0 1 .452-.414l1.769-.507a.664.664 0 0 1 .31-.014c.104.022.2.066.283.132 1.684 1.354 2.894 3.626 3.23 6.041l1.319 9.422a.649.649 0 0 1-.1.45.655.655 0 0 1-.371.276l-1.77.506-.089.018a.589.589 0 0 1-.102.01zM18.53 10.48a8.336 8.336 0 0 0 .515 5.542l3.625 8.17.66-.19-1.212-8.86a8.35 8.35 0 0 0-2.496-4.993l-1.092.33z" clip-rule="evenodd"/>
</svg>
