<svg width="20" height="20" viewBox="0 0 20 20" fill="none" xmlns="http://www.w3.org/2000/svg">
<path fill-rule="evenodd" clip-rule="evenodd" d="M0.599121 19.4003C0.999512 19.8007 1.3999 19.9999 1.99951 19.9999C2.59912 19.9999 2.99951 19.8007 3.3999 19.4003L9.99951 12.8007L16.5991 19.4003C16.9995 19.8007 17.3999 19.9999 17.9995 19.9999C18.5991 19.9999 18.9995 19.8007 19.3999 19.4003C20.1987 18.5995 20.1987 17.4003 19.3999 16.5995L12.8003 9.9999L19.3999 3.40029C19.8589 2.93935 20.0542 2.34756 19.9858 1.77334C19.9351 1.35146 19.7397 0.939353 19.3999 0.599509C18.5991 -0.199319 17.3999 -0.199319 16.5991 0.599509L9.99951 7.19912L3.3999 0.599509C3.07373 0.275291 2.68311 0.0819313 2.28076 0.0213844C1.69092 -0.0684593 1.07373 0.1249 0.599121 0.599509C-0.199707 1.40029 -0.199707 2.59951 0.599121 3.40029L7.19873 9.9999L0.599121 16.5995C-0.199707 17.4003 -0.199707 18.5995 0.599121 19.4003Z" fill="white"/>
</svg>
