<svg width="22" height="22" viewBox="0 0 22 22" fill="none" xmlns="http://www.w3.org/2000/svg">
<path d="M20.5312 21H1.46875C1.20996 21 1 20.79 1 20.5312C1 20.2725 1.20996 20.0625 1.46875 20.0625H20.5312C20.79 20.0625 21 20.2725 21 20.5312C21 20.79 20.79 21 20.5312 21Z" fill="#929292" stroke="#929292" stroke-width="0.3"/>
<path d="M13.7734 21H2.71875C2.45996 21 2.25 20.79 2.25 20.5312V5.53125C2.25 5.27246 2.45996 5.0625 2.71875 5.0625H13.7734C14.0322 5.0625 14.2422 5.27246 14.2422 5.53125V20.5312C14.2422 20.79 14.0322 21 13.7734 21ZM3.1875 20.0625H13.3047V6H3.1875V20.0625Z" fill="#929292" stroke="#929292" stroke-width="0.3"/>
<path d="M11.1758 20.9997H5.31641C5.05762 20.9997 4.84766 20.7897 4.84766 20.5309V12.2695C4.84766 12.0107 5.05762 11.8008 5.31641 11.8008H11.1758C11.4346 11.8008 11.6445 12.0107 11.6445 12.2695V20.5309C11.6445 20.7897 11.4346 20.9997 11.1758 20.9997ZM5.78516 20.0622H10.707V12.7383H5.78516V20.0622Z" fill="#929292" stroke="#929292" stroke-width="0.3"/>
<path d="M19.2812 21H13.7734C13.5146 21 13.3047 20.79 13.3047 20.5312V6H8.01172C7.75293 6 7.54297 5.79004 7.54297 5.53125V1.46875C7.54297 1.20996 7.75293 1 8.01172 1H19.2812C19.54 1 19.75 1.20996 19.75 1.46875V20.5312C19.75 20.79 19.54 21 19.2812 21ZM14.2422 20.0625H18.8125V1.9375H8.48047V5.0625H13.7734C14.0322 5.0625 14.2422 5.27246 14.2422 5.53125V20.0625Z" fill="#929292" stroke="#929292" stroke-width="0.3"/>
<path d="M11.1758 10.7656H5.31641C5.05762 10.7656 4.84766 10.5557 4.84766 10.2969C4.84766 10.0381 5.05762 9.82812 5.31641 9.82812H11.1758C11.4346 9.82812 11.6445 10.0381 11.6445 10.2969C11.6445 10.5557 11.4346 10.7656 11.1758 10.7656Z" fill="#929292" stroke="#929292" stroke-width="0.3"/>
<path d="M11.1758 8.79297H5.31641C5.05762 8.79297 4.84766 8.58301 4.84766 8.32422C4.84766 8.06543 5.05762 7.85547 5.31641 7.85547H11.1758C11.4346 7.85547 11.6445 8.06543 11.6445 8.32422C11.6445 8.58301 11.4346 8.79297 11.1758 8.79297Z" fill="#929292" stroke="#929292" stroke-width="0.3"/>
</svg>
