<svg width="17" height="15" viewBox="0 0 17 15" fill="none" xmlns="http://www.w3.org/2000/svg">
<path fill-rule="evenodd" clip-rule="evenodd" d="M15.2344 12V8.74023C15.2285 8.33008 14.8906 8 14.4727 8C14.0547 8 13.7168 8.33008 13.7109 8.74023V11.5059C13.7109 12.6074 12.8047 13.5 11.6855 13.5H3.54883C2.42969 13.5 1.52344 12.6074 1.52344 11.5059V3.49414C1.52344 2.39258 2.42969 1.5 3.54883 1.5H12.4414L12.459 0H3.04688C1.36328 0 0 1.34375 0 3V12C0 12.8398 0.351562 13.5996 0.917969 14.1445C1.4668 14.6738 2.21875 15 3.04688 15H12.1875C13.8711 15 15.2344 13.6562 15.2344 12ZM14.8164 2.07227C15.1953 1.88281 15.6719 1.94531 15.9883 2.25781C16.3867 2.65039 16.3848 3.28125 15.9863 3.67383L8.80859 10.7402C8.41016 11.1328 7.76758 11.1328 7.37109 10.7422C6.9707 10.3496 6.97461 9.71875 7.37109 9.32617L14.5508 2.25977C14.6309 2.18164 14.7207 2.11914 14.8164 2.07227Z" fill="black"/>
<path d="M12.375 1.5C12.7892 1.5 13.125 1.16421 13.125 0.75C13.125 0.335786 12.7892 0 12.375 0C11.9608 0 11.625 0.335786 11.625 0.75C11.625 1.16421 11.9608 1.5 12.375 1.5Z" fill="#656565"/>
</svg>
