<svg xmlns="http://www.w3.org/2000/svg" width="21" height="21" fill="none" viewBox="0 0 21 21">
    <path fill="#929292" d="M10.067 14.172a.619.619 0 0 0-.13-.192.605.605 0 0 0-.826 0 .555.555 0 0 0-.16.3.585.585 0 1 0 1.158.113.522.522 0 0 0 0-.112.868.868 0 0 0-.042-.11zM11.063 13.98a.585.585 0 1 0 .827 0 .604.604 0 0 0-.827 0zM9.111 15.93a.585.585 0 1 0 .827 0 .604.604 0 0 0-.827 0zM11.063 15.93a.585.585 0 1 0 .827 0 .604.604 0 0 0-.827 0z"/>
    <path fill="#929292" stroke="#929292" stroke-width=".3" d="M10.5 9.909a5.46 5.46 0 1 0 0 10.92 5.46 5.46 0 0 0 0-10.92zm0 9.75a4.29 4.29 0 1 1 0-8.58 4.29 4.29 0 0 1 0 8.58z"/>
    <path fill="#929292" stroke="#929292" stroke-width=".3" d="M20.7 10.103c-1.53-1.837-7.758-3.51-9.615-3.982v-.964a2.535 2.535 0 1 0-3.12-2.465.585.585 0 1 0 1.17 0A1.365 1.365 0 1 1 10.5 4.057a.585.585 0 0 0-.585.585v1.494C8.06 6.593 1.83 8.281.301 10.103a.594.594 0 0 0 .897.78c1.206-1.447 6.993-3.12 9.302-3.674 2.305.554 8.093 2.211 9.302 3.674a.596.596 0 0 0 .898-.78z"/>
</svg>
