<svg xmlns="http://www.w3.org/2000/svg" width="21" height="20" fill="none" viewBox="0 0 21 20">
    <path fill="#929292" d="M19.8 4.696h-3.584V2.838a.55.55 0 0 0-.249-.46L12.507.093a.577.577 0 0 0-.785.15.55.55 0 0 0 .152.77l3.207 2.119v1.563h-3.584a.56.56 0 0 0-.565.555v7.197a5.627 5.627 0 0 0-4.386-2.114c-2.453 0-4.634 1.622-5.331 3.906A1.625 1.625 0 0 0 0 15.803c0 .748.517 1.374 1.215 1.563.136.449.56 2.634 3.078 2.634H8.8a2.96 2.96 0 0 0 2.366-1.17A2.172 2.172 0 0 0 13.097 20h5.095c1.195 0 2.169-.957 2.169-2.13V5.251a.554.554 0 0 0-.562-.555zm-7.738 1.11h3.02v3.418h-3.02V5.806zm-5.516 5.638c1.82 0 3.448 1.115 4.113 2.737H2.433c.666-1.622 2.297-2.736 4.113-2.736zM8.8 18.89H4.293c-1.347 0-1.771-1.244-1.86-1.465h8.23c-.092.22-.681 1.465-1.864 1.465zm2.698-2.583l-9.845.004a.515.515 0 0 1-.522-.512c0-.284.233-.512.522-.512h9.79c.288 0 .52.228.52.512 0 .268-.204.48-.465.508zm7.737 1.563a1.03 1.03 0 0 1-1.038 1.02h-5.095a1.03 1.03 0 0 1-1.039-1.02v-.567a1.62 1.62 0 0 0 1.03-1.504c0-.677-.428-1.26-1.03-1.504v-3.957h7.172v7.532zm0-8.642h-3.018V5.81h3.018v3.418z"/>
</svg>
