<svg xmlns="http://www.w3.org/2000/svg" width="24" height="20" fill="none" viewBox="0 0 24 20">
    <path fill="#929292" fill-rule="evenodd" d="M20.307 1.387a6.669 6.669 0 0 1 1.818 2.064c.62 1.121.943 2.389.914 3.63a7.766 7.766 0 0 1-.4 2.308 8.813 8.813 0 0 1-.75 1.644c-2.123 3.657-8.229 8.082-9.498 8.76-.237.12-.532.207-.827.207h-.058c-.324 0-.62-.059-.856-.207-.943-.502-4.601-3.127-7.226-5.87a.849.849 0 0 1 .03-1.21.845.845 0 0 1 1.208.031c1.322 1.367 2.938 2.727 4.28 3.764 1.203.93 2.185 1.6 2.534 1.781h.118c.945-.473 6.902-4.78 8.85-8.111a6.487 6.487 0 0 0 .913-3.127c.032-.975-.234-1.918-.707-2.774a5.161 5.161 0 0 0-2.754-2.273 5.685 5.685 0 0 0-1.906-.322c-.797 0-1.74.382-2.537.972-.383.295-.826.68-1.209 1.24a.836.836 0 0 1-.709.383.83.83 0 0 1-.707-.382 5.36 5.36 0 0 0-1.21-1.24c-.796-.62-1.741-.973-2.536-.973-1.977 0-3.717.972-4.662 2.595a5.337 5.337 0 0 0-.707 2.774.832.832 0 0 1-.258.652.822.822 0 0 1-.568.233h-.03c-.472 0-.855-.356-.855-.827a6.843 6.843 0 0 1 .17-1.664 7.42 7.42 0 0 1 .773-1.994C2.215 1.3 4.486 0 7.082 0c1.18 0 2.447.443 3.568 1.299.325.264.62.5.885.795.295-.295.56-.531.856-.766C13.51.473 14.84 0 15.99 0c1.614 0 3.114.49 4.316 1.387zm-8.772 14.336c-.353 0-.678-.207-.795-.532l-1.8-4.336H2.243a.856.856 0 0 1 0-1.71H9.5c.355 0 .68.205.797.53l1.12 2.684 2.155-6.843a.797.797 0 0 1 .34-.448.928.928 0 0 1 .426-.142c.353 0 .68.207.826.531l1.652 3.953h1.15a.855.855 0 1 1 0 1.711h-1.71c-.354 0-.649-.207-.797-.531l-.973-2.33-2.154 6.873c-.088.324-.412.56-.766.59h-.03z" clip-rule="evenodd"/>
</svg>
