<svg width="31" height="31" viewBox="0 0 31 31" fill="none" xmlns="http://www.w3.org/2000/svg">
<path fill-rule="evenodd" clip-rule="evenodd" d="M16.3984 0.556467L29.5139 13.4148C30.2854 14.1541 30.2854 15.3756 29.5139 16.1471C29.1281 16.5329 28.6459 16.7258 28.1316 16.7258C27.6494 16.7258 27.1672 16.5329 26.7815 16.1793L26.7172 16.115L22.8597 29.3269C22.699 29.7448 22.2811 30.002 21.831 30.002H8.23339C7.7512 30.002 7.36545 29.7448 7.20473 29.3269L3.34724 16.115L3.28295 16.1793C2.51145 16.9186 1.28991 16.9186 0.55056 16.1471C-0.188792 15.3756 -0.188792 14.1541 0.582705 13.4148L13.6982 0.556467C14.4375 -0.182885 15.6591 -0.182885 16.3984 0.556467ZM19 22.302C19 24.2349 17.433 25.802 15.5 25.802C13.567 25.802 12 24.2349 12 22.302C12 20.369 13.567 18.802 15.5 18.802C17.433 18.802 19 20.369 19 22.302Z" fill="#999999"/>
</svg>
