<svg width="25" height="37" viewBox="0 0 25 37" fill="none" xmlns="http://www.w3.org/2000/svg">
<path d="M3.17 4.38H5.51V12.84H9.845V15H3.17V4.38ZM10.5666 9.69C10.5666 8.84 10.7066 8.07 10.9866 7.38C11.2766 6.69 11.6766 6.105 12.1866 5.625C12.6966 5.135 13.3016 4.76 14.0016 4.5C14.7016 4.24 15.4666 4.11 16.2966 4.11C17.1266 4.11 17.8916 4.24 18.5916 4.5C19.2916 4.76 19.8966 5.135 20.4066 5.625C20.9166 6.105 21.3116 6.69 21.5916 7.38C21.8816 8.07 22.0266 8.84 22.0266 9.69C22.0266 10.54 21.8816 11.31 21.5916 12C21.3116 12.69 20.9166 13.28 20.4066 13.77C19.8966 14.25 19.2916 14.62 18.5916 14.88C17.8916 15.14 17.1266 15.27 16.2966 15.27C15.4666 15.27 14.7016 15.14 14.0016 14.88C13.3016 14.62 12.6966 14.25 12.1866 13.77C11.6766 13.28 11.2766 12.69 10.9866 12C10.7066 11.31 10.5666 10.54 10.5666 9.69ZM12.9966 9.69C12.9966 10.19 13.0716 10.65 13.2216 11.07C13.3816 11.48 13.6066 11.84 13.8966 12.15C14.1866 12.45 14.5316 12.685 14.9316 12.855C15.3416 13.025 15.7966 13.11 16.2966 13.11C16.7966 13.11 17.2466 13.025 17.6466 12.855C18.0566 12.685 18.4066 12.45 18.6966 12.15C18.9866 11.84 19.2066 11.48 19.3566 11.07C19.5166 10.65 19.5966 10.19 19.5966 9.69C19.5966 9.2 19.5166 8.745 19.3566 8.325C19.2066 7.905 18.9866 7.545 18.6966 7.245C18.4066 6.935 18.0566 6.695 17.6466 6.525C17.2466 6.355 16.7966 6.27 16.2966 6.27C15.7966 6.27 15.3416 6.355 14.9316 6.525C14.5316 6.695 14.1866 6.935 13.8966 7.245C13.6066 7.545 13.3816 7.905 13.2216 8.325C13.0716 8.745 12.9966 9.2 12.9966 9.69Z" fill="#656565"/>
<path d="M10.695 30.25C10.005 30.61 9.285 30.87 8.535 31.03C7.785 31.19 7.02 31.27 6.24 31.27C5.41 31.27 4.645 31.14 3.945 30.88C3.245 30.62 2.64 30.25 2.13 29.77C1.62 29.28 1.22 28.69 0.93 28C0.65 27.31 0.51 26.54 0.51 25.69C0.51 24.84 0.65 24.07 0.93 23.38C1.22 22.69 1.62 22.105 2.13 21.625C2.64 21.135 3.245 20.76 3.945 20.5C4.645 20.24 5.41 20.11 6.24 20.11C7.09 20.11 7.87 20.215 8.58 20.425C9.3 20.625 9.93 20.975 10.47 21.475L8.82 23.275C8.5 22.945 8.14 22.695 7.74 22.525C7.34 22.355 6.84 22.27 6.24 22.27C5.74 22.27 5.285 22.355 4.875 22.525C4.475 22.695 4.13 22.935 3.84 23.245C3.55 23.545 3.325 23.905 3.165 24.325C3.015 24.745 2.94 25.2 2.94 25.69C2.94 26.19 3.015 26.65 3.165 27.07C3.325 27.48 3.55 27.84 3.84 28.15C4.13 28.45 4.475 28.685 4.875 28.855C5.285 29.025 5.74 29.11 6.24 29.11C6.75 29.11 7.19 29.055 7.56 28.945C7.93 28.825 8.225 28.705 8.445 28.585V26.86H6.54V24.7H10.695V30.25ZM12.1848 25.69C12.1848 24.84 12.3248 24.07 12.6048 23.38C12.8948 22.69 13.2948 22.105 13.8048 21.625C14.3148 21.135 14.9198 20.76 15.6198 20.5C16.3198 20.24 17.0848 20.11 17.9148 20.11C18.7448 20.11 19.5098 20.24 20.2098 20.5C20.9098 20.76 21.5148 21.135 22.0248 21.625C22.5348 22.105 22.9298 22.69 23.2098 23.38C23.4998 24.07 23.6448 24.84 23.6448 25.69C23.6448 26.54 23.4998 27.31 23.2098 28C22.9298 28.69 22.5348 29.28 22.0248 29.77C21.5148 30.25 20.9098 30.62 20.2098 30.88C19.5098 31.14 18.7448 31.27 17.9148 31.27C17.0848 31.27 16.3198 31.14 15.6198 30.88C14.9198 30.62 14.3148 30.25 13.8048 29.77C13.2948 29.28 12.8948 28.69 12.6048 28C12.3248 27.31 12.1848 26.54 12.1848 25.69ZM14.6148 25.69C14.6148 26.19 14.6898 26.65 14.8398 27.07C14.9998 27.48 15.2248 27.84 15.5148 28.15C15.8048 28.45 16.1498 28.685 16.5498 28.855C16.9598 29.025 17.4148 29.11 17.9148 29.11C18.4148 29.11 18.8648 29.025 19.2648 28.855C19.6748 28.685 20.0248 28.45 20.3148 28.15C20.6048 27.84 20.8248 27.48 20.9748 27.07C21.1348 26.65 21.2148 26.19 21.2148 25.69C21.2148 25.2 21.1348 24.745 20.9748 24.325C20.8248 23.905 20.6048 23.545 20.3148 23.245C20.0248 22.935 19.6748 22.695 19.2648 22.525C18.8648 22.355 18.4148 22.27 17.9148 22.27C17.4148 22.27 16.9598 22.355 16.5498 22.525C16.1498 22.695 15.8048 22.935 15.5148 23.245C15.2248 23.545 14.9998 23.905 14.8398 24.325C14.6898 24.745 14.6148 25.2 14.6148 25.69Z" fill="#656565"/>
</svg>
