<svg xmlns="http://www.w3.org/2000/svg" width="20" height="20" fill="none" viewBox="0 0 20 20">
    <path fill="#929292" fill-rule="evenodd" d="M4.273 20A4.277 4.277 0 0 1 0 15.727V4.273A4.277 4.277 0 0 1 4.273 0a.989.989 0 1 1 0 1.979A2.264 2.264 0 0 0 2 4.252v11.453a2.263 2.263 0 0 0 2.273 2.274h11.454A2.263 2.263 0 0 0 18 15.704a.989.989 0 1 1 1.979 0A4.25 4.25 0 0 1 15.727 20H4.273zm9.243-13.496H10a.987.987 0 0 1-.795-1.58.99.99 0 0 1 .795-.399h3.516V.99c0-.549.441-.99.99-.99.547 0 .988.441.988.99v3.535h3.494c.547 0 .99.442.99.99a.975.975 0 0 1-.99.989h-3.494v3.475a.993.993 0 0 1-.988 1.011.989.989 0 0 1-.99-.99V6.504z" clip-rule="evenodd"/>
</svg>
