<svg xmlns="http://www.w3.org/2000/svg" width="18" height="20" fill="none" viewBox="0 0 18 20">
    <path fill="#929292" d="M17.064.008a.668.668 0 0 0-.028.007.667.667 0 0 0-.111.02L5.822 2.993a.666.666 0 0 0-.493.638v10.395a3.289 3.289 0 0 0-1.998-.687A3.34 3.34 0 0 0 0 16.67C0 18.501 1.5 20 3.33 20c1.832 0 3.332-1.5 3.332-3.33V4.143l10.61-2.817a.667.667 0 0 0-.208-1.319zm.027 2.214a.664.664 0 0 0-.07.007.666.666 0 0 0-.589.673v1.86L8.056 6.989a.668.668 0 1 0 .347 1.29l8.029-2.137v4.802c-.561-.43-1.241-.714-1.998-.714-1.832 0-3.331 1.499-3.331 3.33 0 1.832 1.499 3.331 3.33 3.331a3.34 3.34 0 0 0 3.331-3.33V2.9a.665.665 0 0 0-.673-.68zm-2.658 9.34c1.04 0 1.88.778 1.985 1.783a.682.682 0 0 0 .014.07v.145a1.988 1.988 0 0 1-1.998 1.999 1.988 1.988 0 0 1-1.999-1.999c0-1.111.887-1.998 1.998-1.998zM3.332 14.67c1.07 0 1.928.823 1.991 1.873a.668.668 0 0 0 .007.07v.055a1.988 1.988 0 0 1-1.998 1.999 1.988 1.988 0 0 1-1.999-1.999c0-1.111.887-1.998 1.999-1.998z"/>
</svg>
