<svg xmlns="http://www.w3.org/2000/svg" width="24" height="20" fill="none" viewBox="0 0 24 20">
    <path fill="#929292" d="M8.602.001a.79.79 0 0 0-.625.436L6.61 3.159h-3.19A3.43 3.43 0 0 0 0 6.579v10A3.43 3.43 0 0 0 3.42 20h16.842a3.43 3.43 0 0 0 3.42-3.42v-10a3.43 3.43 0 0 0-3.42-3.421h-3.19L15.706.437A.79.79 0 0 0 15 0H8.684a.79.79 0 0 0-.082 0zm.575 1.579h5.329l1.365 2.722a.79.79 0 0 0 .707.436h3.684a1.82 1.82 0 0 1 1.842 1.842v10a1.82 1.82 0 0 1-1.842 1.841H3.421a1.82 1.82 0 0 1-1.842-1.842v-10A1.82 1.82 0 0 1 3.42 4.739h3.684a.79.79 0 0 0 .707-.436L9.177 1.58zm2.665 3.947c-3.334 0-6.053 2.72-6.053 6.052 0 3.334 2.72 6.053 6.053 6.053 3.333 0 6.052-2.72 6.052-6.053 0-3.333-2.72-6.052-6.052-6.052zm0 1.579a4.462 4.462 0 0 1 4.473 4.473 4.461 4.461 0 0 1-4.474 4.474 4.461 4.461 0 0 1-4.473-4.474 4.462 4.462 0 0 1 4.473-4.473zm-.033.526a.79.79 0 0 0 .033 1.58 2.356 2.356 0 0 1 2.368 2.367.79.79 0 1 0 1.579 0 3.96 3.96 0 0 0-3.98-3.947z"/>
</svg>
