<svg width ="12"
        height = "12"
        viewBox = "0 0 12 12"
        fill = "none"
        xmlns = "http://www.w3.org/2000/svg" >
            <path fill-rule = "evenodd"
        clip-rule = "evenodd"
        d = "M6.70312 0.5625V3.375C6.70312 3.42891 6.72422 3.47813 6.76172 3.51563C6.79687 3.55078 6.84609 3.57422 6.90234 3.57422H8.02266C8.07656 3.57422 8.12578 3.55313 8.16328 3.51563C8.19844 3.48047 8.22187 3.43125 8.22187 3.375V0.5625C8.22187 0.508594 8.20078 0.459375 8.16328 0.421875C8.12812 0.386719 8.07891 0.363281 8.02266 0.363281H6.90234C6.84844 0.363281 6.79922 0.384375 6.76172 0.421875C6.72656 0.457031 6.70312 0.50625 6.70312 0.5625Z"
        fill = "#2D9CDB" / >
            <path fill-rule = "evenodd"
        clip-rule = "evenodd"
        d = "M0.501563 12H11.4984C11.775 12 12 11.775 12 11.4984V1.50469L10.4953 0H8.80781V3.93047H3.19219V0H0.501563C0.225 0 0 0.225 0 0.501563V11.4984C0 11.775 0.225 12 0.501563 12ZM2.93438 6.6H9.06797C9.32109 6.6 9.52734 6.80625 9.52734 7.05938V10.5867C9.52734 10.8398 9.32109 11.0461 9.06797 11.0461H2.93438C2.68125 11.0461 2.475 10.8398 2.475 10.5867V7.05938C2.475 6.80625 2.68125 6.6 2.93438 6.6Z"
        fill = "#2D9CDB" />
</svg>