<svg width="30" height="31" viewBox="0 0 30 31" fill="none" xmlns="http://www.w3.org/2000/svg">
<path fill-rule="evenodd" clip-rule="evenodd" d="M13.3203 15.0547L0.433594 8.64258C0.167969 8.50977 0 8.24414 0 7.95312C0 7.66016 0.167969 7.39453 0.433594 7.26172L13.3184 0.849609C13.7852 0.617188 14.2988 0.5 14.8086 0.5C15.3203 0.5 15.8301 0.617188 16.2988 0.849609L29.1797 7.26172C29.4473 7.39453 29.6152 7.66016 29.6152 7.95117C29.6152 8.24414 29.4473 8.50977 29.1797 8.64258L16.2988 15.0547C15.9219 15.2422 15.5117 15.3535 15.1016 15.3906C15.0039 15.3984 14.9062 15.4023 14.8086 15.4023C14.2988 15.4023 13.7871 15.2852 13.3203 15.0547ZM29.1797 14.8086L25.1152 12.7852L17.1836 16.7324C16.4512 17.0957 15.6309 17.2891 14.8086 17.2891C13.9863 17.2891 13.166 17.0977 12.4355 16.7324L4.50195 12.7852L0.433594 14.8086C0.167969 14.9414 0 15.207 0 15.5C0 15.7891 0.167969 16.0586 0.433594 16.1895L13.3203 22.6016C13.4551 22.6699 13.5957 22.7285 13.7363 22.7773C13.8477 22.8145 13.9609 22.8457 14.0762 22.8711C14.3184 22.9238 14.5645 22.9512 14.8086 22.9512C15.3184 22.9512 15.832 22.8359 16.2988 22.6016L29.1797 16.1895C29.4473 16.0586 29.6152 15.791 29.6152 15.5C29.6152 15.207 29.4473 14.9414 29.1797 14.8086ZM29.1797 22.3555L25.1152 20.332L22.9844 21.3926L26.3086 23.0469L15.4121 28.4688C15.2266 28.5625 15.0176 28.6113 14.8086 28.6113C14.5977 28.6113 14.3887 28.5625 14.2031 28.4688L3.30664 23.0469L6.63086 21.3945L4.50195 20.334L0.433594 22.3574C0.167969 22.4883 0 22.7559 0 23.0488C0 23.3379 0.167969 23.6055 0.433594 23.7383L13.3203 30.1484C13.7871 30.3828 14.2988 30.5 14.8086 30.5C15.0762 30.5 15.3457 30.4668 15.6074 30.4023C15.8457 30.3438 16.0781 30.2598 16.2988 30.1484L29.1797 23.7383C29.3242 23.666 29.4395 23.5566 29.5137 23.4258C29.5781 23.3125 29.6152 23.1836 29.6152 23.0488C29.6152 22.7559 29.4473 22.4883 29.1797 22.3555Z" fill="#999999"/>
</svg>
