<svg width="30" height="30" viewBox="0 0 30 30" fill="none" xmlns="http://www.w3.org/2000/svg">
<path fill-rule="evenodd" clip-rule="evenodd" d="M15 0C6.71484 0 0 6.71484 0 15C0 23.2852 6.71484 30 15 30C23.2852 30 30 23.2852 30 15C30 6.71484 23.2852 0 15 0ZM15 6.74219C18.3145 6.74219 21 9.48242 21 12.8613C21 14.8906 20.0312 16.6895 18.5391 17.8027C17.5469 18.543 16.3242 18.9805 15 18.9805C11.6855 18.9805 9 16.2402 9 12.8613C9 9.48242 11.6855 6.74219 15 6.74219ZM5.79297 24.1699C8.14844 26.5332 11.4062 28 15 28C18.5938 28 21.8496 26.5332 24.2051 24.1699C22.2402 22.2598 18.8516 21 15 21C12.9434 21 11.0195 21.3594 9.37305 21.9844C7.93555 22.5293 6.70898 23.2793 5.79297 24.1699Z" fill="#999999"/>
</svg>
