<svg xmlns="http://www.w3.org/2000/svg" width="20" height="20" fill="none" viewBox="0 0 20 20">
    <path fill="#929292" d="M1.258 13.426A6.581 6.581 0 0 0 7.832 20a6.524 6.524 0 0 0 2.932-.699 5.692 5.692 0 0 0 2.728.698 5.721 5.721 0 0 0 5.485-4.113c.795-2.724-.546-5.568-3.031-6.75l2.578-1.413a.41.41 0 0 0 .162-.558l-.972-1.772a.41.41 0 0 0-.245-.197l-2.44-.71a.41.41 0 0 0-.312.033l-1.772.972c-.011.007-.018.017-.029.024a.406.406 0 0 0-.093.08.411.411 0 0 0-.043.446l.003.008 1.412 2.576a5.641 5.641 0 0 0-1.82.062 6.55 6.55 0 0 0-3.624-1.763l2.51-2.51a.41.41 0 0 0 0-.581L9.6 2.171a.41.41 0 0 0-.29-.12H6.355a.41.41 0 0 0-.29.12L4.401 3.833a.41.41 0 0 0 0 .58l2.511 2.511c-3.19.45-5.655 3.19-5.655 6.502zM15.14 8.642l-1.162-2.12 3.281.957-2.119 1.163zm-.178-3.321l2.113.616.414.754-3.281-.956.754-.414zm-1.475 4.074c.46 0 .922.066 1.376.198a4.86 4.86 0 0 1 2.918 2.343 4.86 4.86 0 0 1 .407 3.72 4.896 4.896 0 0 1-6.063 3.326 4.957 4.957 0 0 1-.517-.184 6.567 6.567 0 0 0 2.797-5.372 6.533 6.533 0 0 0-1.371-4.002c.15-.014.301-.029.453-.029zm-4.28 7.244a4.858 4.858 0 0 1-.408-3.72A4.859 4.859 0 0 1 11.143 10c.313-.172.64-.3.975-.398a5.723 5.723 0 0 1 1.467 3.824 5.75 5.75 0 0 1-2.804 4.93 4.865 4.865 0 0 1-1.574-1.717zm1.54-7.359a5.673 5.673 0 0 0-2.736 3.41 5.674 5.674 0 0 0 .475 4.344 5.698 5.698 0 0 0 1.466 1.735 5.716 5.716 0 0 1-2.121.41 5.76 5.76 0 0 1-5.753-5.753 5.76 5.76 0 0 1 5.753-5.753c1.37 0 2.63.484 3.62 1.287a5.76 5.76 0 0 0-.704.32zM7.832 6.682L5.683 4.534H9.98L7.832 6.682zm-1.308-3.81H9.14l.841.84H5.683l.841-.84zM11.871 2.092h.861v.86a.41.41 0 0 0 .821 0v-.86h.86a.41.41 0 1 0 0-.821h-.86v-.86a.41.41 0 0 0-.82 0v.86h-.862a.41.41 0 1 0 0 .82zM.41 6.595h.422v.422a.41.41 0 0 0 .821 0v-.422h.422a.41.41 0 0 0 0-.821h-.422v-.422a.41.41 0 0 0-.82 0v.422H.41a.41.41 0 0 0 0 .82z"/>
</svg>
