<svg width="30" height="30" viewBox="0 0 30 30" fill="none" xmlns="http://www.w3.org/2000/svg">
<path fill-rule="evenodd" clip-rule="evenodd" d="M28.5 0H1.5C0.599609 0 0 0.599609 0 1.5V28.5C0 28.6328 0.0136719 28.7578 0.0390625 28.877C0.181641 29.5625 0.732422 30 1.5 30H28.5C29.123 30 29.6016 29.7129 29.8379 29.2363C29.9434 29.0254 30 28.7773 30 28.5V1.5C30 0.599609 29.4004 0 28.5 0ZM24 1.5C24.9004 1.5 25.5 2.09961 25.5 3C25.5 3.90039 24.9004 4.5 24 4.5C23.0996 4.5 22.5 3.90039 22.5 3C22.5 2.09961 23.0996 1.5 24 1.5ZM19.5 3C19.5 2.09961 18.9004 1.5 18 1.5C17.0996 1.5 16.5 2.09961 16.5 3C16.5 3.90039 17.0996 4.5 18 4.5C18.3984 4.5 18.7383 4.38281 18.9941 4.17383C19.3145 3.91016 19.5 3.50195 19.5 3ZM3 27V6H27V27H3Z" fill="#999999"/>
</svg>
