<svg width="30" height="28" viewBox="0 0 30 28" fill="none" xmlns="http://www.w3.org/2000/svg">
<path fill-rule="evenodd" clip-rule="evenodd" d="M28.75 12.5H16.25C15.5588 12.5 15 13.06 15 13.75V26.25C15 26.94 15.5588 27.5 16.25 27.5H21.25V21.7675L20.8838 22.1338C20.395 22.6225 19.605 22.6225 19.1163 22.1338C18.6275 21.645 18.6275 20.855 19.1163 20.3662L21.615 17.8675C21.73 17.7512 21.8688 17.66 22.0225 17.5962C22.3275 17.47 22.6725 17.47 22.9775 17.5962C23.1313 17.66 23.27 17.7512 23.385 17.8675L25.8838 20.3662C26.3725 20.855 26.3725 21.645 25.8838 22.1338C25.64 22.3775 25.32 22.5 25 22.5C24.68 22.5 24.36 22.3775 24.1162 22.1338L23.75 21.7675V27.5H28.75C29.4412 27.5 30 26.94 30 26.25V13.75C30 13.06 29.4412 12.5 28.75 12.5Z" fill="#999999"/>
<path fill-rule="evenodd" clip-rule="evenodd" d="M28.75 3.75H14.2675L10.8837 0.36625C10.65 0.13125 10.3313 0 10 0H1.25C0.56 0 0 0.55875 0 1.25V26.25C0 26.9412 0.56 27.5 1.25 27.5H12.73C12.59 27.1075 12.5 26.69 12.5 26.25V13.75C12.5 11.6825 14.1825 10 16.25 10H28.75C29.19 10 29.6075 10.09 30 10.23V5C30 4.30875 29.44 3.75 28.75 3.75Z" fill="#999999"/>
</svg>
