<svg width="32" height="32" viewBox="0 0 32 32" fill="none" xmlns="http://www.w3.org/2000/svg">
<path fill-rule="evenodd" clip-rule="evenodd" d="M2.25 31H29.8281C30.5176 31 31.0781 30.4395 31.0781 29.75V17.25C31.0781 16.5605 30.5176 16 29.8281 16H27.3281C26.6387 16 26.0781 16.5605 26.0781 17.25V26H6V6H14.8281C15.5176 6 16.0781 5.43945 16.0781 4.75V2.25C16.0781 1.56055 15.5176 1 14.8281 1H2.25C1.56055 1 1 1.56055 1 2.25V29.75C1 30.4395 1.56055 31 2.25 31ZM18.5781 2.25C18.5781 1.56055 19.1387 1 19.8281 1H31.0781V12.25C31.0781 12.9395 30.5176 13.5 29.8281 13.5H27.3281C26.6387 13.5 26.0781 12.9395 26.0781 12.25V9.53516L14.9805 20.6348C14.7441 20.8691 14.4277 21 14.0957 21H11.0781V17.9824C11.0781 17.6504 11.209 17.334 11.4434 17.0996L22.543 6H19.8281C19.1387 6 18.5781 5.43945 18.5781 4.75V2.25Z" fill="#999999"/>
<path d="M26.0781 26V26.5H26.5781V26H26.0781ZM6 26H5.5V26.5H6V26ZM6 6V5.5H5.5V6H6ZM31.0781 1H31.5781V0.5H31.0781V1ZM26.0781 9.53516H26.5781V8.3279L25.7245 9.18163L26.0781 9.53516ZM14.9805 20.6348L15.3326 20.9898L15.3341 20.9883L14.9805 20.6348ZM11.0781 21H10.5781V21.5H11.0781V21ZM22.543 6L22.8965 6.35355L23.7501 5.5H22.543V6ZM29.8281 30.5H2.25V31.5H29.8281V30.5ZM30.5781 29.75C30.5781 30.1633 30.2414 30.5 29.8281 30.5V31.5C30.7937 31.5 31.5781 30.7156 31.5781 29.75H30.5781ZM30.5781 17.25V29.75H31.5781V17.25H30.5781ZM29.8281 16.5C30.2414 16.5 30.5781 16.8367 30.5781 17.25H31.5781C31.5781 16.2844 30.7937 15.5 29.8281 15.5V16.5ZM27.3281 16.5H29.8281V15.5H27.3281V16.5ZM26.5781 17.25C26.5781 16.8367 26.9148 16.5 27.3281 16.5V15.5C26.3625 15.5 25.5781 16.2844 25.5781 17.25H26.5781ZM26.5781 26V17.25H25.5781V26H26.5781ZM6 26.5H26.0781V25.5H6V26.5ZM5.5 6V26H6.5V6H5.5ZM14.8281 5.5H6V6.5H14.8281V5.5ZM15.5781 4.75C15.5781 5.16331 15.2414 5.5 14.8281 5.5V6.5C15.7937 6.5 16.5781 5.7156 16.5781 4.75H15.5781ZM15.5781 2.25V4.75H16.5781V2.25H15.5781ZM14.8281 1.5C15.2414 1.5 15.5781 1.83669 15.5781 2.25H16.5781C16.5781 1.2844 15.7937 0.5 14.8281 0.5V1.5ZM2.25 1.5H14.8281V0.5H2.25V1.5ZM1.5 2.25C1.5 1.83669 1.83669 1.5 2.25 1.5V0.5C1.2844 0.5 0.5 1.2844 0.5 2.25H1.5ZM1.5 29.75V2.25H0.5V29.75H1.5ZM2.25 30.5C1.83669 30.5 1.5 30.1633 1.5 29.75H0.5C0.5 30.7156 1.2844 31.5 2.25 31.5V30.5ZM19.8281 0.5C18.8625 0.5 18.0781 1.2844 18.0781 2.25H19.0781C19.0781 1.83669 19.4148 1.5 19.8281 1.5V0.5ZM31.0781 0.5H19.8281V1.5H31.0781V0.5ZM31.5781 12.25V1H30.5781V12.25H31.5781ZM29.8281 14C30.7937 14 31.5781 13.2156 31.5781 12.25H30.5781C30.5781 12.6633 30.2414 13 29.8281 13V14ZM27.3281 14H29.8281V13H27.3281V14ZM25.5781 12.25C25.5781 13.2156 26.3625 14 27.3281 14V13C26.9148 13 26.5781 12.6633 26.5781 12.25H25.5781ZM25.5781 9.53516V12.25H26.5781V9.53516H25.5781ZM15.3341 20.9883L26.4317 9.88868L25.7245 9.18163L14.6269 20.2812L15.3341 20.9883ZM14.0957 21.5C14.5604 21.5 15.0031 21.3165 15.3326 20.9898L14.6284 20.2797C14.4852 20.4218 14.2951 20.5 14.0957 20.5V21.5ZM11.0781 21.5H14.0957V20.5H11.0781V21.5ZM10.5781 17.9824V21H11.5781V17.9824H10.5781ZM11.0898 16.7461C10.7614 17.0744 10.5781 17.5181 10.5781 17.9824H11.5781C11.5781 17.7827 11.6565 17.5935 11.7969 17.4532L11.0898 16.7461ZM22.1894 5.64645L11.0898 16.7461L11.7969 17.4532L22.8965 6.35355L22.1894 5.64645ZM19.8281 6.5H22.543V5.5H19.8281V6.5ZM18.0781 4.75C18.0781 5.7156 18.8625 6.5 19.8281 6.5V5.5C19.4148 5.5 19.0781 5.16331 19.0781 4.75H18.0781ZM18.0781 2.25V4.75H19.0781V2.25H18.0781Z" fill="black"/>
</svg>
